HIERARCHY
ROOT pelvis
{
  OFFSET 0 100 0
  CHANNELS 6 Xposition Yposition Zposition Zrotation Xrotation Yrotation
  JOINT pelvis_right_femur
  {
    OFFSET -10.78128 -3.44521 -0.5502486
    CHANNELS 3 Zrotation Xrotation Yrotation
    JOINT right_femur_tibia
    {
      OFFSET -0.8047443 -44.0398 -0.1307829
      CHANNELS 3 Zrotation Xrotation Yrotation
      JOINT right_tibia_foot
      {
        OFFSET 3.006224 -47.83518 -5
        CHANNELS 3 Zrotation Xrotation Yrotation
        End Site
        {
          OFFSET 0 -5 15
        }
      }
    }
  }
  JOINT pelvis_left_femur
  {
    OFFSET 10.78128 -3.44521 -0.5502486
    CHANNELS 3 Zrotation Xrotation Yrotation
    JOINT left_femur_tibia
    {
      OFFSET 0.8047443 -44.0398 -0.1307829
      CHANNELS 3 Zrotation Xrotation Yrotation
      JOINT left_tibia_foot
      {
        OFFSET -4.370144 -48.10324 -4.275266
        CHANNELS 3 Zrotation Xrotation Yrotation
        End Site
        {
          OFFSET 0 -5 15
        }
      }
    }
  }
  JOINT pelvis_spine1
  {
    OFFSET 0 6.468898 -3.129235
    CHANNELS 3 Zrotation Xrotation Yrotation
    JOINT spine1
    {
      OFFSET 0 23.15396 4.99043
      CHANNELS 3 Zrotation Xrotation Yrotation
      JOINT spine2
      {
        OFFSET 0 20.79997 -5.064912
        CHANNELS 3 Zrotation Xrotation Yrotation
        JOINT neck
        {
          OFFSET 0 14.38658 9.616178
          CHANNELS 3 Zrotation Xrotation Yrotation
          End Site
          {
            OFFSET 0 20 0
          }
        }
      }
      JOINT right_manubrium
      {
        OFFSET -5.722621 16.35077 3.967754
        CHANNELS 3 Zrotation Xrotation Yrotation
        JOINT right_clavicle
        {
          OFFSET -13.16364 1.694482 -4.693211
          CHANNELS 3 Zrotation Xrotation Yrotation
          JOINT right_humerus
          {
            OFFSET -28.5034 -0.3100689 -2.792744
            CHANNELS 3 Zrotation Xrotation Yrotation
            JOINT right_radius
            {
              OFFSET -25.15693 0.02248979 -1.271978
              CHANNELS 3 Zrotation Xrotation Yrotation
              End Site
              {
                OFFSET -15 0 0
              }
            }
          }
        }
      }
      JOINT left_manubrium
      {
        OFFSET 5.722621 16.35077 3.967754
        CHANNELS 3 Zrotation Xrotation Yrotation
        JOINT left_clavicle
        {
          OFFSET 13.16364 1.694482 -4.693211
          CHANNELS 3 Zrotation Xrotation Yrotation
          JOINT left_humerus
          {
            OFFSET 29.39168 -1.063119 -2.237045
            CHANNELS 3 Zrotation Xrotation Yrotation
            JOINT left_radius
            {
              OFFSET 24.59957 -0.9528479 0.9047498
              CHANNELS 3 Zrotation Xrotation Yrotation
              End Site
              {
                OFFSET 15 -0 -0
              }
            }
          }
        }
      }
    }
  }
}
MOTION
Frames: 13
Frame Time: 0.0416666666667
-1068.726 110.4352 2639.309 -3.957074 -2.14201 -43.63801 6.033789 -23.84767 -3.605466 -0 7.011141 -0 -15.92161 5.809098 0.3786812 -3.804282 14.86455 -9.169994 -0 28.25248 -0 2.193254 -14.7572 14.52196 -0.7318173 -0.595752 10.92767 -1.785053 12.59484 -1.716568 1.262244 21.3444 3.253589 1.826045 -18.46316 4.30712 -1.344968 -29.24186 11.76121 81.26001 20.18092 -0.0172314 -0 0 32.21027 -25.26917 8.93585 16.88228 1.986584 -14.60579 -3.271056 -100.6463 15.53246 41.46028 -0 0 3.122256 -0.07824375 6.950676 13.5144
-1073.254 110.8575 2643.72 -4.429309 -2.267282 -44.01935 7.024612 -20.62022 -2.540069 -0 9.211186 -0 -16.21878 4.018284 -0.2755612 -3.422828 13.00231 -8.815313 -0 36.73019 -0 1.344032 -11.85563 13.60156 -0.6694867 -0.6388134 10.9538 -1.789914 12.65634 -1.727802 1.286995 21.31952 3.196845 1.741358 -18.46467 4.33442 -1.462559 -29.38536 11.76024 81.41192 20.03536 -0.04204147 -0 0 32.31185 -25.31717 9.100987 16.91016 1.913767 -14.6366 -3.319558 -100.6645 15.43795 41.64743 -0 0 3.043721 -0.1226975 7.081936 13.59135
-1077.728 111.7931 2648.02 -4.893732 -2.59697 -44.4979 7.632349 -16.41991 -1.544422 -0 11.61706 -0 -16.30038 1.864914 -0.8497413 -2.95864 9.665425 -8.38321 -0 44.35432 -0 0.60704 -8.953374 13.0355 -0.5734928 -0.7025725 11.0003 -1.800765 12.74237 -1.739308 1.330745 21.27691 3.113577 1.601832 -18.45819 4.393698 -1.633408 -29.60289 11.75774 81.62233 19.82727 -0.05939236 -0 0 32.49212 -25.41973 9.4064 16.97189 1.794396 -14.66026 -3.381627 -100.7035 15.31284 41.95346 -0 0 2.926034 -0.2317789 7.275051 13.76848
-1082.01 113.0303 2652.105 -5.19721 -2.967589 -45.04461 7.819505 -11.6196 -0.6561237 -0 13.27934 -0 -15.97391 -0.7936706 -1.268807 -2.367287 4.837347 -7.843396 -0 49.72739 -0 -0.04222308 -6.450853 12.86963 -0.4492081 -0.782414 11.06106 -1.816148 12.84357 -1.749655 1.394494 21.21976 3.010449 1.410891 -18.44629 4.491495 -1.847652 -29.87492 11.75115 81.87999 19.57094 -0.06875183 -0 0 32.73295 -25.57306 9.847498 17.06717 1.635093 -14.66963 -3.448929 -100.7579 15.17328 42.35013 -0 0 2.770036 -0.4036534 7.521248 14.04358
-1086.007 114.2594 2655.93 -5.235123 -3.228445 -45.62676 7.622559 -6.586935 0.1113885 -0 13.53337 -0 -15.13515 -4.112291 -1.507956 -1.602689 -1.192543 -7.177632 -0 51.6835 -0 -0.6191244 -4.637413 13.06979 -0.3041336 -0.8727518 11.13123 -1.835691 12.95002 -1.755547 1.477318 21.15199 2.895719 1.177118 -18.42968 4.630266 -2.090091 -30.18128 11.73902 82.1639 19.28794 -0.06211775 -0 0 33.02028 -25.77377 10.41255 17.1952 1.444875 -14.65682 -3.512706 -100.8258 15.03041 42.81187 -0 0 2.590481 -0.6315131 7.811037 14.40533
-1089.694 115.1505 2659.526 -4.984044 -3.290783 -46.21656 7.120789 -1.608952 0.7374006 -0 12.20536 -0 -13.82891 -8.122356 -1.577362 -0.6457301 -7.810491 -6.39643 -0 49.61489 -0 -1.10212 -3.613351 13.53859 -0.1482147 -0.9667847 11.2077 -1.86046 13.05144 -1.751789 1.575911 21.0785 2.779059 0.9148982 -18.40661 4.80691 -2.340505 -30.50136 11.72124 82.44398 19.00483 -0.02518642 -0 0 33.34481 -26.01903 11.07913 17.35439 1.235423 -14.61359 -3.564447 -100.9088 14.8916 43.31602 -0 0 2.415637 -0.9051627 8.13116 14.83532
-1093.116 115.4463 2662.993 -4.505542 -3.156016 -46.79531 6.402568 3.145646 1.193774 -0 9.710882 -0 -12.24215 -12.57955 -1.500753 0.4473205 -14.17525 -5.574177 -0 43.72231 -0 -1.442119 -3.276386 14.16171 0.006334486 -1.05651 11.28887 -1.89274 13.13755 -1.732015 1.684533 21.00513 2.671068 0.6439342 -18.37304 5.012301 -2.575163 -30.81402 11.69898 82.68431 18.74976 0.05910317 -0 0 33.70028 -26.30594 11.81193 17.54168 1.020959 -14.53241 -3.596646 -101.0116 14.76273 43.84113 -0 0 2.28269 -1.212534 8.462224 15.31068
-1096.37 115.038 2666.465 -3.921049 -2.91189 -47.3508 5.539405 7.602339 1.468312 -0 6.987045 -0 -10.64099 -16.88192 -1.304567 1.497013 -19.41776 -4.887405 -0 35.0698 -0 -1.594547 -3.383899 14.8619 0.1461341 -1.133409 11.37385 -1.935213 13.19902 -1.690278 1.795487 20.93828 2.582289 0.387171 -18.32375 5.232156 -2.769689 -31.09827 11.67448 82.84893 18.54867 0.2053625 -0 0 34.08048 -26.63 12.56441 17.75183 0.8171987 -14.40843 -3.603827 -101.1389 14.65003 44.36517 -0 0 2.229212 -1.540702 8.778945 15.80668
-1099.583 113.9998 2670.076 -3.372362 -2.69877 -47.87228 4.578559 11.70466 1.581091 -0 5.24282 -0 -9.297691 -20.13644 -1.013969 2.209651 -22.87366 -4.60119 -0 25.3742 -0 -1.541733 -3.662946 15.62548 0.25876 -1.189865 11.46152 -1.989716 13.22894 -1.623202 1.900236 20.88379 2.521715 0.1671201 -18.25406 5.449431 -2.902998 -31.33505 11.65068 82.9092 18.42171 0.4202248 -0 0 34.47608 -26.9838 13.2857 17.97689 0.6392468 -14.24182 -3.583679 -101.2923 14.5603 44.86474 -0 0 2.28232 -1.876333 9.054138 16.29891
-1102.878 112.5719 2673.933 -2.985938 -2.660051 -48.34793 3.558079 15.3291 1.571506 -0 5.581209 -0 -8.439778 -21.40084 -0.6431012 2.296009 -24.24812 -4.951958 -0 16.55502 -0 -1.288796 -3.916615 16.4844 0.3352716 -1.220841 11.54971 -2.056102 13.22424 -1.53172 1.991038 20.84566 2.495265 0.001387768 -18.16163 5.64803 -2.961271 -31.50967 11.63063 82.85044 18.38082 0.6987229 -0 0 34.87292 -27.35664 13.93128 18.20659 0.4989278 -14.03921 -3.537688 -101.4679 14.50008 45.3162 -0 0 2.449474 -2.206264 9.265263 16.76553
-1106.343 111.096 2678.085 -2.850878 -2.895389 -48.76508 2.533024 18.24204 1.463436 -0 8.615464 -0 -8.219081 -20.03845 -0.1794612 1.643893 -23.64251 -5.985446 -0 10.17554 -0 -0.8428792 -4.082968 17.46873 0.3719429 -1.224894 11.63494 -2.131884 13.18601 -1.421233 2.062624 20.82536 2.504967 -0.1008706 -18.0476 5.816696 -2.940427 -31.6136 11.61665 82.67497 18.42864 1.024488 -0 0 35.25265 -27.73593 14.4726 18.42997 0.4027731 -13.81269 -3.470597 -101.6559 14.47475 45.69798 -0 0 2.71558 -2.518907 9.399946 17.19003
-1110.001 109.9186 2682.511 -3.009431 -3.432393 -49.11176 1.58986 20.12801 1.239194 -0 14.23239 -0 -8.69423 -16.02805 0.4172327 0.3876948 -21.44953 -7.506876 -0 6.985802 -0 -0.1970304 -4.230413 18.56362 0.3701649 -1.203926 11.71265 -2.212863 13.11835 -1.300014 2.113131 20.82203 2.549372 -0.1397933 -17.91673 5.951338 -2.845838 -31.64435 11.60962 82.40012 18.55871 1.373446 -0 0 35.59528 -28.10923 14.89998 18.63732 0.3518734 -13.57656 -3.388769 -101.8426 14.48897 45.99257 -0 0 3.047827 -2.80608 9.456802 17.56361
-1113.796 109.2946 2687.112 -3.453404 -4.223529 -49.37823 0.8292149 20.6774 0.849541 -0 21.6103 -0 -9.829469 -10.0419 1.183417 -1.182438 -18.18479 -9.193823 -0 6.770013 -0 0.6665192 -4.504143 19.69909 0.3345566 -1.161795 11.77772 -2.294189 13.02636 -1.17698 2.14378 20.83361 2.625 -0.122537 -17.7766 6.054604 -2.689413 -31.60309 11.6087 82.05261 18.75704 1.718259 -0 0 35.88137 -28.46545 15.21715 18.821 0.3437917 -13.34395 -3.298337 -102.0135 14.5482 46.18587 -0 0 3.404679 -3.063785 9.440995 17.88532
